    <svg width="60" height="60" viewBox="0 0 207 117" fill="none" xmlns="http://www.w3.org/2000/svg">
                                <mask id="mask0_1186_651" maskUnits="userSpaceOnUse" x="0" y="0"
                                    width="207" height="117">
                                    <path d="M0 0H206.938V116.276H0V0Z" fill="white" />
                                </mask>
                                <g mask="url(#mask0_1186_651)">
                                    <path
                                        d="M197.625 92.3112C185.406 104.525 165.688 104.77 153.167 93.0508C151.672 98.0977 148.938 102.723 145.115 106.551C132.641 119.02 112.354 119.02 99.8854 106.551L81.9323 88.5977L93.7604 76.7487L111.719 94.707C117.661 100.65 127.333 100.65 133.276 94.707C136.156 91.8268 137.74 88.0039 137.74 83.931C137.74 80.1185 136.354 76.5247 133.813 73.7227L115.281 55.1914L127.125 43.3268L164.234 80.4675C170.182 86.4102 179.849 86.4102 185.792 80.4675C188.672 77.5872 190.255 73.7591 190.255 69.6862C190.255 65.6133 188.672 61.7904 185.792 58.9102L148.708 21.8268C142.182 15.3008 131.552 15.3008 125.026 21.8268L54.5521 92.3008C48.5104 98.3477 40.474 101.676 31.9323 101.676C23.3906 101.676 15.3594 98.3477 9.31771 92.3112C3.28125 86.2695 -0.046875 78.2331 -0.046875 69.6966C-0.046875 61.1549 3.28125 53.1185 9.31771 47.082L46.401 9.9987C52.9271 3.47266 61.5 0.207031 70.0781 0.207031C78.6563 0.207031 87.2344 3.47266 93.7604 9.9987L103.464 19.7018L113.188 9.9987C119.719 3.47266 128.292 0.207031 136.87 0.207031C145.443 0.207031 154.021 3.47266 160.552 9.9987L197.63 47.082C203.672 53.1185 207 61.1497 207 69.6966C207 78.2383 203.661 86.2695 197.625 92.3112ZM81.9219 21.8372C75.3906 15.306 64.7656 15.306 58.2344 21.8372L21.1563 58.9206C18.276 61.7956 16.6927 65.6237 16.6927 69.6966C16.6927 73.7695 18.2813 77.5925 21.1563 80.4675C24.0365 83.3477 27.8646 84.931 31.9375 84.931C36.0104 84.931 39.8333 83.3477 42.7135 80.4675L58.2552 64.9258L58.1927 64.8633L91.6094 31.5247L81.9219 21.8372Z"
                                        fill="white" />
                                </g>
                            </svg>